STARTFONT 2.1
FONT --Helv24C-Regular-R-Normal--29-290-72-72-P-160-FONTSPECIFIC-0
SIZE 29 72 72
FONTBOUNDINGBOX 30 29 0 -6
METRICSSET 2
STARTPROPERTIES 19
FONT_ASCENT 23
FONT_DESCENT 6
PIXEL_SIZE 29
RESOLUTION_X 72
RESOLUTION_Y 72
POINT_SIZE 290
FACE_NAME "Modern 24-point C"
FOUNDRY ""
FAMILY_NAME "Helv24C"
WEIGHT_NAME "Regular"
RELATIVE_WEIGHT 50
SLANT "R"
SPACING "P"
SETWIDTH_NAME "Normal"
RELATIVE_SETWIDTH 50
ADD_STYLE_NAME ""
AVERAGE_WIDTH 160
CHARSET_REGISTRY "FONTSPECIFIC"
CHARSET_ENCODING "0"
ENDPROPERTIES
CHARS 193
STARTCHAR char08
ENCODING 8
SWIDTH 552 0
DWIDTH 16 0
BBX 14 15 1 1
VVECTOR 8 23
SWIDTH1 0 -1000
DWIDTH1 0 -29
BITMAP 
8000
8000
8000
8000
8400
8C00
9C00
BFFC
9C00
8C00
8400
8000
8000
8000
8000
ENDCHAR
STARTCHAR char09
ENCODING 9
SWIDTH 552 0
DWIDTH 16 0
BBX 14 15 1 1
VVECTOR 8 23
SWIDTH1 0 -1000
DWIDTH1 0 -29
BITMAP 
0004
0004
0004
0004
0084
00C4
00E4
FFF4
00E4
00C4
0084
0004
0004
0004
0004
ENDCHAR
STARTCHAR char0C
ENCODING 12
SWIDTH 759 0
DWIDTH 22 0
BBX 17 19 2 0
VVECTOR 11 23
SWIDTH1 0 -1000
DWIDTH1 0 -29
BITMAP 
FFFF80
800080
800080
800080
800080
800080
800080
800080
800080
800080
800080
800080
800080
800080
800080
808080
F1C780
03E000
07F000
ENDCHAR
STARTCHAR char0D
ENCODING 13
SWIDTH 759 0
DWIDTH 22 0
BBX 19 21 1 -2
VVECTOR 11 23
SWIDTH1 0 -1000
DWIDTH1 0 -29
BITMAP 
03FE00
000180
000040
000020
000020
000020
000020
000020
000020
000020
000020
000020
000020
000020
100020
300040
700180
FFFE00
700000
300000
100000
ENDCHAR
STARTCHAR char1C
ENCODING 28
SWIDTH 552 0
DWIDTH 16 0
BBX 14 7 1 5
VVECTOR 8 23
SWIDTH1 0 -1000
DWIDTH1 0 -29
BITMAP 
1000
3000
7000
FFFC
7000
3000
1000
ENDCHAR
STARTCHAR char1D
ENCODING 29
SWIDTH 552 0
DWIDTH 16 0
BBX 14 7 1 5
VVECTOR 8 23
SWIDTH1 0 -1000
DWIDTH1 0 -29
BITMAP 
0020
0030
0038
FFFC
0038
0030
0020
ENDCHAR
STARTCHAR char1E
ENCODING 30
SWIDTH 552 0
DWIDTH 16 0
BBX 7 13 5 2
VVECTOR 9 23
SWIDTH1 0 -1000
DWIDTH1 0 -29
BITMAP 
10
38
7C
FE
10
10
10
10
10
10
10
10
10
ENDCHAR
STARTCHAR char1F
ENCODING 31
SWIDTH 552 0
DWIDTH 16 0
BBX 7 13 5 2
VVECTOR 9 23
SWIDTH1 0 -1000
DWIDTH1 0 -29
BITMAP 
10
10
10
10
10
10
10
10
10
FE
7C
38
10
ENDCHAR
STARTCHAR char20
ENCODING 32
SWIDTH 310 0
DWIDTH 9 0
BBX 0 0 0 -6
VVECTOR 0 -6
SWIDTH1 0 0
DWIDTH1 0 0
BITMAP 
ENDCHAR
STARTCHAR char21
ENCODING 33
SWIDTH 310 0
DWIDTH 9 0
BBX 3 20 3 0
VVECTOR 5 23
SWIDTH1 0 -1000
DWIDTH1 0 -29
BITMAP 
E0
E0
E0
E0
E0
E0
E0
E0
E0
E0
E0
E0
E0
E0
E0
00
00
E0
E0
E0
ENDCHAR
STARTCHAR char22
ENCODING 34
SWIDTH 379 0
DWIDTH 11 0
BBX 8 6 1 14
VVECTOR 5 23
SWIDTH1 0 -1000
DWIDTH1 0 -29
BITMAP 
E7
E7
E7
E7
E7
E7
ENDCHAR
STARTCHAR char23
ENCODING 35
SWIDTH 793 0
DWIDTH 23 0
BBX 21 18 1 2
VVECTOR 12 23
SWIDTH1 0 -1000
DWIDTH1 0 -29
BITMAP 
0070E0
0070E0
00E1C0
00E1C0
1FFFF8
1FFFF8
1FFFF8
038700
038700
070E00
070E00
FFFFC0
FFFFC0
FFFFC0
1C3800
1C3800
387000
387000
ENDCHAR
STARTCHAR char24
ENCODING 36
SWIDTH 552 0
DWIDTH 16 0
BBX 14 24 1 -2
VVECTOR 8 23
SWIDTH1 0 -1000
DWIDTH1 0 -29
BITMAP 
0200
0200
0200
0F80
3FE0
7FF0
F278
E238
E238
FA00
7F00
1FC0
07F0
02F8
023C
E21C
E21C
F23C
7FF8
3FF0
0FC0
0200
0200
0200
ENDCHAR
STARTCHAR char25
ENCODING 37
SWIDTH 793 0
DWIDTH 23 0
BBX 20 20 2 0
VVECTOR 12 23
SWIDTH1 0 -1000
DWIDTH1 0 -29
BITMAP 
3E0000
7F0000
FF80E0
E381C0
E38380
E38700
FF8E00
7F1C00
3E3800
007000
00E000
01C7C0
038FE0
071FF0
0E1C70
1C1C70
381C70
701FF0
000FE0
0007C0
ENDCHAR
STARTCHAR char26
ENCODING 38
SWIDTH 586 0
DWIDTH 17 0
BBX 15 20 1 0
VVECTOR 9 23
SWIDTH1 0 -1000
DWIDTH1 0 -29
BITMAP 
0700
1FC0
3FE0
38E0
38E0
38E0
1DC0
0F80
0F00
1F00
3B80
738E
E1DE
E0FC
E0F8
E070
F0F8
7FFC
3FDE
0F0E
ENDCHAR
STARTCHAR char27
ENCODING 39
SWIDTH 207 0
DWIDTH 6 0
BBX 3 6 2 14
VVECTOR 4 23
SWIDTH1 0 -1000
DWIDTH1 0 -29
BITMAP 
E0
E0
E0
E0
E0
E0
ENDCHAR
STARTCHAR char28
ENCODING 40
SWIDTH 310 0
DWIDTH 9 0
BBX 7 28 1 -6
VVECTOR 5 23
SWIDTH1 0 -1000
DWIDTH1 0 -29
BITMAP 
06
1E
3E
38
70
70
70
E0
E0
E0
E0
E0
E0
E0
E0
E0
E0
E0
E0
E0
E0
70
70
70
38
3E
1E
06
ENDCHAR
STARTCHAR char29
ENCODING 41
SWIDTH 310 0
DWIDTH 9 0
BBX 7 28 1 -6
VVECTOR 5 23
SWIDTH1 0 -1000
DWIDTH1 0 -29
BITMAP 
C0
F0
F8
38
1C
1C
1C
0E
0E
0E
0E
0E
0E
0E
0E
0E
0E
0E
0E
0E
0E
1C
1C
1C
38
F8
F0
C0
ENDCHAR
STARTCHAR char2A
ENCODING 42
SWIDTH 552 0
DWIDTH 16 0
BBX 12 10 2 7
VVECTOR 8 23
SWIDTH1 0 -1000
DWIDTH1 0 -29
BITMAP 
70E0
39C0
1F80
0F00
FFF0
FFF0
0F00
1F80
39C0
70E0
ENDCHAR
STARTCHAR char2B
ENCODING 43
SWIDTH 793 0
DWIDTH 23 0
BBX 19 17 2 2
VVECTOR 12 23
SWIDTH1 0 -1000
DWIDTH1 0 -29
BITMAP 
00E000
00E000
00E000
00E000
00E000
00E000
00E000
FFFFE0
FFFFE0
FFFFE0
00E000
00E000
00E000
00E000
00E000
00E000
00E000
ENDCHAR
STARTCHAR char2C
ENCODING 44
SWIDTH 172 0
DWIDTH 5 0
BBX 4 6 1 -3
VVECTOR 3 23
SWIDTH1 0 -1000
DWIDTH1 0 -29
BITMAP 
70
70
70
70
E0
E0
ENDCHAR
STARTCHAR char2D
ENCODING 45
SWIDTH 793 0
DWIDTH 23 0
BBX 19 3 2 9
VVECTOR 12 23
SWIDTH1 0 -1000
DWIDTH1 0 -29
BITMAP 
FFFFE0
FFFFE0
FFFFE0
ENDCHAR
STARTCHAR char2E
ENCODING 46
SWIDTH 172 0
DWIDTH 5 0
BBX 3 3 1 0
VVECTOR 3 23
SWIDTH1 0 -1000
DWIDTH1 0 -29
BITMAP 
E0
E0
E0
ENDCHAR
STARTCHAR char2F
ENCODING 47
SWIDTH 310 0
DWIDTH 9 0
BBX 7 20 1 0
VVECTOR 5 23
SWIDTH1 0 -1000
DWIDTH1 0 -29
BITMAP 
06
06
06
0C
0C
0C
0C
18
18
18
30
30
30
60
60
60
60
C0
C0
C0
ENDCHAR
STARTCHAR char30
ENCODING 48
SWIDTH 552 0
DWIDTH 16 0
BBX 14 20 1 0
VVECTOR 8 23
SWIDTH1 0 -1000
DWIDTH1 0 -29
BITMAP 
0FC0
3FF0
7FF8
7038
E01C
E01C
E01C
E01C
E01C
E01C
E01C
E01C
E01C
E01C
E01C
E01C
7038
7FF8
3FF0
0FC0
ENDCHAR
STARTCHAR char31
ENCODING 49
SWIDTH 552 0
DWIDTH 16 0
BBX 8 20 2 0
VVECTOR 6 23
SWIDTH1 0 -1000
DWIDTH1 0 -29
BITMAP 
07
0F
FF
FF
FF
07
07
07
07
07
07
07
07
07
07
07
07
07
07
07
ENDCHAR
STARTCHAR char32
ENCODING 50
SWIDTH 552 0
DWIDTH 16 0
BBX 13 20 1 0
VVECTOR 8 23
SWIDTH1 0 -1000
DWIDTH1 0 -29
BITMAP 
0F80
3FE0
7FF0
F078
E038
E038
E038
0078
00F0
01E0
03C0
0780
0F00
1E00
3C00
7800
7000
FFF8
FFF8
FFF8
ENDCHAR
STARTCHAR char33
ENCODING 51
SWIDTH 552 0
DWIDTH 16 0
BBX 13 20 1 0
VVECTOR 8 23
SWIDTH1 0 -1000
DWIDTH1 0 -29
BITMAP 
1F80
3FE0
7FF0
F078
E038
E038
0038
0078
07F0
07E0
07F0
0078
0038
E038
E038
E038
F078
7FF0
3FE0
0F80
ENDCHAR
STARTCHAR char34
ENCODING 52
SWIDTH 552 0
DWIDTH 16 0
BBX 14 20 1 0
VVECTOR 8 23
SWIDTH1 0 -1000
DWIDTH1 0 -29
BITMAP 
00F0
01F0
01F0
03F0
0770
0770
0E70
1C70
1C70
3870
7070
7070
FFFC
FFFC
FFFC
0070
0070
0070
0070
0070
ENDCHAR
STARTCHAR char35
ENCODING 53
SWIDTH 552 0
DWIDTH 16 0
BBX 13 20 1 0
VVECTOR 8 23
SWIDTH1 0 -1000
DWIDTH1 0 -29
BITMAP 
7FF0
7FF0
7FF0
7000
7000
7000
7000
7F80
7FE0
7FF0
6078
0038
0038
0038
E038
E038
F078
7FF0
3FE0
0F80
ENDCHAR
STARTCHAR char36
ENCODING 54
SWIDTH 552 0
DWIDTH 16 0
BBX 13 20 1 0
VVECTOR 8 23
SWIDTH1 0 -1000
DWIDTH1 0 -29
BITMAP 
0F00
3FC0
7FE0
F0F0
E070
E000
E000
EF80
FFE0
FFF0
F078
E038
E038
E038
E038
E038
F078
7FF0
3FE0
0F80
ENDCHAR
STARTCHAR char37
ENCODING 55
SWIDTH 552 0
DWIDTH 16 0
BBX 13 20 1 0
VVECTOR 8 23
SWIDTH1 0 -1000
DWIDTH1 0 -29
BITMAP 
FFF8
FFF8
FFF8
0070
0070
00E0
00E0
01C0
01C0
0380
0380
0380
0700
0700
0700
0700
0E00
0E00
0E00
0E00
ENDCHAR
STARTCHAR char38
ENCODING 56
SWIDTH 552 0
DWIDTH 16 0
BBX 13 20 1 0
VVECTOR 8 23
SWIDTH1 0 -1000
DWIDTH1 0 -29
BITMAP 
0F80
3FE0
7FF0
F078
E038
E038
E038
F078
7FF0
1FC0
7FF0
F078
E038
E038
E038
E038
F078
7FF0
3FE0
0F80
ENDCHAR
STARTCHAR char39
ENCODING 57
SWIDTH 552 0
DWIDTH 16 0
BBX 13 20 1 0
VVECTOR 8 23
SWIDTH1 0 -1000
DWIDTH1 0 -29
BITMAP 
0F80
3FE0
7FF0
F078
E038
E038
E038
E038
E038
F078
7FF8
3FF8
0FB8
0038
0038
7038
7878
3FF0
1FE0
0780
ENDCHAR
STARTCHAR char3A
ENCODING 58
SWIDTH 172 0
DWIDTH 5 0
BBX 3 12 1 0
VVECTOR 3 23
SWIDTH1 0 -1000
DWIDTH1 0 -29
BITMAP 
E0
E0
E0
00
00
00
00
00
00
E0
E0
E0
ENDCHAR
STARTCHAR char3B
ENCODING 59
SWIDTH 172 0
DWIDTH 5 0
BBX 4 15 1 -3
VVECTOR 3 23
SWIDTH1 0 -1000
DWIDTH1 0 -29
BITMAP 
70
70
70
00
00
00
00
00
00
70
70
70
70
E0
E0
ENDCHAR
STARTCHAR char3C
ENCODING 60
SWIDTH 552 0
DWIDTH 16 0
BBX 11 17 2 1
VVECTOR 8 23
SWIDTH1 0 -1000
DWIDTH1 0 -29
BITMAP 
00E0
01C0
0380
0700
0E00
1C00
3800
7000
E000
7000
3800
1C00
0E00
0700
0380
01C0
00E0
ENDCHAR
STARTCHAR char3D
ENCODING 61
SWIDTH 793 0
DWIDTH 23 0
BBX 19 9 2 6
VVECTOR 12 23
SWIDTH1 0 -1000
DWIDTH1 0 -29
BITMAP 
FFFFE0
FFFFE0
FFFFE0
000000
000000
000000
FFFFE0
FFFFE0
FFFFE0
ENDCHAR
STARTCHAR char3E
ENCODING 62
SWIDTH 552 0
DWIDTH 16 0
BBX 11 17 3 1
VVECTOR 9 23
SWIDTH1 0 -1000
DWIDTH1 0 -29
BITMAP 
E000
7000
3800
1C00
0E00
0700
0380
01C0
00E0
01C0
0380
0700
0E00
1C00
3800
7000
E000
ENDCHAR
STARTCHAR char3F
ENCODING 63
SWIDTH 552 0
DWIDTH 16 0
BBX 14 20 1 0
VVECTOR 8 23
SWIDTH1 0 -1000
DWIDTH1 0 -29
BITMAP 
0FC0
3FF0
7FF8
F03C
E01C
E01C
001C
003C
0078
00F0
01E0
01C0
03C0
0380
0380
0000
0000
0380
0380
0380
ENDCHAR
STARTCHAR char40
ENCODING 64
SWIDTH 793 0
DWIDTH 23 0
BBX 19 17 2 1
VVECTOR 12 23
SWIDTH1 0 -1000
DWIDTH1 0 -29
BITMAP 
03F800
0C0600
100100
200080
41FC40
43FC40
870C20
860C20
860C20
860C20
871C40
43FE40
40F380
200000
100000
0C0000
03FC00
ENDCHAR
STARTCHAR char41
ENCODING 65
SWIDTH 655 0
DWIDTH 19 0
BBX 17 20 1 0
VVECTOR 10 23
SWIDTH1 0 -1000
DWIDTH1 0 -29
BITMAP 
01C000
03E000
03E000
077000
077000
0E3800
0E3800
0E3800
1C1C00
1C1C00
1C1C00
3FFE00
3FFE00
3FFE00
700700
700700
700700
E00380
E00380
E00380
ENDCHAR
STARTCHAR char42
ENCODING 66
SWIDTH 655 0
DWIDTH 19 0
BBX 16 20 2 0
VVECTOR 10 23
SWIDTH1 0 -1000
DWIDTH1 0 -29
BITMAP 
FFE0
FFF8
FFFC
E01E
E00E
E00E
E00E
E01E
FFFC
FFF8
FFFE
E00F
E007
E007
E007
E007
E00F
FFFE
FFFC
FFF0
ENDCHAR
STARTCHAR char43
ENCODING 67
SWIDTH 690 0
DWIDTH 20 0
BBX 18 20 1 0
VVECTOR 10 23
SWIDTH1 0 -1000
DWIDTH1 0 -29
BITMAP 
03F800
0FFE00
3FFF00
7C0F80
700380
E001C0
E001C0
E001C0
E00000
E00000
E00000
E00000
E001C0
E001C0
E001C0
700380
7C0F80
3FFF00
0FFE00
03F800
ENDCHAR
STARTCHAR char44
ENCODING 68
SWIDTH 690 0
DWIDTH 20 0
BBX 17 20 2 0
VVECTOR 11 23
SWIDTH1 0 -1000
DWIDTH1 0 -29
BITMAP 
FFE000
FFF800
FFFE00
E01F00
E00700
E00380
E00380
E00380
E00380
E00380
E00380
E00380
E00380
E00380
E00380
E00700
E01F00
FFFE00
FFF800
FFE000
ENDCHAR
STARTCHAR char45
ENCODING 69
SWIDTH 586 0
DWIDTH 17 0
BBX 14 20 2 0
VVECTOR 9 23
SWIDTH1 0 -1000
DWIDTH1 0 -29
BITMAP 
FFFC
FFFC
FFFC
E000
E000
E000
E000
E000
FFF0
FFF0
FFF0
E000
E000
E000
E000
E000
E000
FFFC
FFFC
FFFC
ENDCHAR
STARTCHAR char46
ENCODING 70
SWIDTH 621 0
DWIDTH 18 0
BBX 15 20 2 0
VVECTOR 10 23
SWIDTH1 0 -1000
DWIDTH1 0 -29
BITMAP 
FFFE
FFFE
FFFE
E000
E000
E000
E000
E000
FFF8
FFF8
FFF8
E000
E000
E000
E000
E000
E000
E000
E000
E000
ENDCHAR
STARTCHAR char47
ENCODING 71
SWIDTH 690 0
DWIDTH 20 0
BBX 18 20 1 0
VVECTOR 10 23
SWIDTH1 0 -1000
DWIDTH1 0 -29
BITMAP 
03F800
0FFE00
3FFF00
7C0F80
700380
E001C0
E001C0
E00000
E00000
E00000
E03FC0
E03FC0
E03FC0
E001C0
E001C0
7003C0
7C0FC0
3FFFC0
0FFDC0
03F1C0
ENDCHAR
STARTCHAR char48
ENCODING 72
SWIDTH 690 0
DWIDTH 20 0
BBX 16 20 2 0
VVECTOR 10 23
SWIDTH1 0 -1000
DWIDTH1 0 -29
BITMAP 
E007
E007
E007
E007
E007
E007
E007
E007
FFFF
FFFF
FFFF
E007
E007
E007
E007
E007
E007
E007
E007
E007
ENDCHAR
STARTCHAR char49
ENCODING 73
SWIDTH 241 0
DWIDTH 7 0
BBX 3 20 2 0
VVECTOR 4 23
SWIDTH1 0 -1000
DWIDTH1 0 -29
BITMAP 
E0
E0
E0
E0
E0
E0
E0
E0
E0
E0
E0
E0
E0
E0
E0
E0
E0
E0
E0
E0
ENDCHAR
STARTCHAR char4A
ENCODING 74
SWIDTH 517 0
DWIDTH 15 0
BBX 12 20 1 0
VVECTOR 7 23
SWIDTH1 0 -1000
DWIDTH1 0 -29
BITMAP 
0070
0070
0070
0070
0070
0070
0070
0070
0070
0070
0070
0070
0070
0070
E070
E070
F0F0
7FE0
3FC0
0F00
ENDCHAR
STARTCHAR char4B
ENCODING 75
SWIDTH 655 0
DWIDTH 19 0
BBX 16 20 2 0
VVECTOR 10 23
SWIDTH1 0 -1000
DWIDTH1 0 -29
BITMAP 
E00F
E01E
E03C
E078
E0F0
E1E0
E3C0
E780
EF00
FE00
FE00
FF00
F780
E3C0
E1E0
E0F0
E078
E03C
E01E
E00F
ENDCHAR
STARTCHAR char4C
ENCODING 76
SWIDTH 552 0
DWIDTH 16 0
BBX 13 20 2 0
VVECTOR 9 23
SWIDTH1 0 -1000
DWIDTH1 0 -29
BITMAP 
E000
E000
E000
E000
E000
E000
E000
E000
E000
E000
E000
E000
E000
E000
E000
E000
E000
FFF8
FFF8
FFF8
ENDCHAR
STARTCHAR char4D
ENCODING 77
SWIDTH 828 0
DWIDTH 24 0
BBX 20 20 2 0
VVECTOR 12 23
SWIDTH1 0 -1000
DWIDTH1 0 -29
BITMAP 
C00030
E00070
F000F0
F801F0
FC03F0
FE07F0
EF0F70
E79E70
E3FC70
E1F870
E0F070
E06070
E00070
E00070
E00070
E00070
E00070
E00070
E00070
E00070
ENDCHAR
STARTCHAR char4E
ENCODING 78
SWIDTH 724 0
DWIDTH 21 0
BBX 17 20 2 0
VVECTOR 11 23
SWIDTH1 0 -1000
DWIDTH1 0 -29
BITMAP 
C00380
E00380
F00380
F80380
F80380
FC0380
EE0380
E70380
E70380
E38380
E1C380
E0E380
E0E380
E07380
E03B80
E03B80
E01F80
E00F80
E00780
E00380
ENDCHAR
STARTCHAR char4F
ENCODING 79
SWIDTH 724 0
DWIDTH 21 0
BBX 19 20 1 0
VVECTOR 11 23
SWIDTH1 0 -1000
DWIDTH1 0 -29
BITMAP 
03F800
0FFE00
3FFF80
7C07C0
7001C0
E000E0
E000E0
E000E0
E000E0
E000E0
E000E0
E000E0
E000E0
E000E0
E000E0
7001C0
7C07C0
3FFF80
0FFE00
03F800
ENDCHAR
STARTCHAR char50
ENCODING 80
SWIDTH 621 0
DWIDTH 18 0
BBX 15 20 2 0
VVECTOR 10 23
SWIDTH1 0 -1000
DWIDTH1 0 -29
BITMAP 
FFE0
FFF8
FFFC
E01E
E00E
E00E
E00E
E00E
E00E
E01E
FFFC
FFF8
FFE0
E000
E000
E000
E000
E000
E000
E000
ENDCHAR
STARTCHAR char51
ENCODING 81
SWIDTH 724 0
DWIDTH 21 0
BBX 19 22 1 -2
VVECTOR 11 23
SWIDTH1 0 -1000
DWIDTH1 0 -29
BITMAP 
03F800
0FFE00
3FFF80
7C07C0
7001C0
E000E0
E000E0
E000E0
E000E0
E000E0
E000E0
E000E0
E000E0
E000E0
E070E0
7071C0
7C3BC0
3FFF80
0FFE00
03FC00
000E00
000E00
ENDCHAR
STARTCHAR char52
ENCODING 82
SWIDTH 621 0
DWIDTH 18 0
BBX 16 20 2 0
VVECTOR 10 23
SWIDTH1 0 -1000
DWIDTH1 0 -29
BITMAP 
FFE0
FFF8
FFFC
E01E
E00E
E00E
E00E
E00E
E01E
FFFC
FFF0
FFFC
E01E
E00E
E00E
E00E
E00E
E00E
E00E
E007
ENDCHAR
STARTCHAR char53
ENCODING 83
SWIDTH 586 0
DWIDTH 17 0
BBX 15 20 1 0
VVECTOR 9 23
SWIDTH1 0 -1000
DWIDTH1 0 -29
BITMAP 
07E0
1FF8
3FFC
781E
700E
700E
7800
3C00
1F00
0FC0
03F0
00F8
003C
E01E
E00E
E00E
F01E
7FFC
3FF8
0FE0
ENDCHAR
STARTCHAR char54
ENCODING 84
SWIDTH 586 0
DWIDTH 17 0
BBX 15 20 1 0
VVECTOR 9 23
SWIDTH1 0 -1000
DWIDTH1 0 -29
BITMAP 
FFFE
FFFE
FFFE
0380
0380
0380
0380
0380
0380
0380
0380
0380
0380
0380
0380
0380
0380
0380
0380
0380
ENDCHAR
STARTCHAR char55
ENCODING 85
SWIDTH 690 0
DWIDTH 20 0
BBX 16 20 2 0
VVECTOR 10 23
SWIDTH1 0 -1000
DWIDTH1 0 -29
BITMAP 
E007
E007
E007
E007
E007
E007
E007
E007
E007
E007
E007
E007
E007
E007
E007
E007
F00F
7FFE
3FFC
0FF0
ENDCHAR
STARTCHAR char56
ENCODING 86
SWIDTH 655 0
DWIDTH 19 0
BBX 17 20 1 0
VVECTOR 10 23
SWIDTH1 0 -1000
DWIDTH1 0 -29
BITMAP 
E00380
E00380
E00380
700700
700700
700700
380E00
380E00
380E00
1C1C00
1C1C00
1C1C00
0E3800
0E3800
0E3800
077000
077000
03E000
03E000
01C000
ENDCHAR
STARTCHAR char57
ENCODING 87
SWIDTH 931 0
DWIDTH 27 0
BBX 25 20 1 0
VVECTOR 14 23
SWIDTH1 0 -1000
DWIDTH1 0 -29
BITMAP 
E0000380
E0000380
E0000380
E0000380
701C0700
703E0700
703E0700
70770700
38770E00
38770E00
38E38E00
38E38E00
1CE39C00
1DC1DC00
1DC1DC00
1DC1DC00
0F80F800
0F80F800
07007000
07007000
ENDCHAR
STARTCHAR char58
ENCODING 88
SWIDTH 655 0
DWIDTH 19 0
BBX 17 20 1 0
VVECTOR 10 23
SWIDTH1 0 -1000
DWIDTH1 0 -29
BITMAP 
F00780
780F00
380E00
3C1E00
1E3C00
0F7800
077000
07F000
03E000
01C000
01C000
03E000
07F000
077800
0F7800
1E3C00
3C1E00
380F00
780F00
F00780
ENDCHAR
STARTCHAR char59
ENCODING 89
SWIDTH 621 0
DWIDTH 18 0
BBX 15 20 1 0
VVECTOR 9 23
SWIDTH1 0 -1000
DWIDTH1 0 -29
BITMAP 
E00E
E00E
701C
701C
3838
3838
1C70
1C70
0EE0
0EE0
07C0
0380
0380
0380
0380
0380
0380
0380
0380
0380
ENDCHAR
STARTCHAR char5A
ENCODING 90
SWIDTH 517 0
DWIDTH 15 0
BBX 13 20 1 0
VVECTOR 8 23
SWIDTH1 0 -1000
DWIDTH1 0 -29
BITMAP 
FFF8
FFF8
FFF8
0070
00E0
00E0
01C0
0380
0380
0700
0700
0E00
1C00
1C00
3800
3800
7000
FFF8
FFF8
FFF8
ENDCHAR
STARTCHAR char5B
ENCODING 91
SWIDTH 310 0
DWIDTH 9 0
BBX 6 28 2 -6
VVECTOR 5 23
SWIDTH1 0 -1000
DWIDTH1 0 -29
BITMAP 
FC
FC
FC
E0
E0
E0
E0
E0
E0
E0
E0
E0
E0
E0
E0
E0
E0
E0
E0
E0
E0
E0
E0
E0
E0
FC
FC
FC
ENDCHAR
STARTCHAR char5C
ENCODING 92
SWIDTH 310 0
DWIDTH 9 0
BBX 7 20 1 0
VVECTOR 5 23
SWIDTH1 0 -1000
DWIDTH1 0 -29
BITMAP 
C0
C0
C0
60
60
60
60
30
30
30
18
18
18
0C
0C
0C
0C
06
06
06
ENDCHAR
STARTCHAR char5D
ENCODING 93
SWIDTH 310 0
DWIDTH 9 0
BBX 6 28 1 -6
VVECTOR 4 23
SWIDTH1 0 -1000
DWIDTH1 0 -29
BITMAP 
FC
FC
FC
1C
1C
1C
1C
1C
1C
1C
1C
1C
1C
1C
1C
1C
1C
1C
1C
1C
1C
1C
1C
1C
1C
FC
FC
FC
ENDCHAR
STARTCHAR char5E
ENCODING 94
SWIDTH 552 0
DWIDTH 16 0
BBX 8 3 4 20
VVECTOR 8 23
SWIDTH1 0 -1000
DWIDTH1 0 -29
BITMAP 
3C
7E
E7
ENDCHAR
STARTCHAR char5F
ENCODING 95
SWIDTH 793 0
DWIDTH 23 0
BBX 23 3 0 -6
VVECTOR 12 23
SWIDTH1 0 -1000
DWIDTH1 0 -29
BITMAP 
FFFFFE
FFFFFE
FFFFFE
ENDCHAR
STARTCHAR char60
ENCODING 96
SWIDTH 552 0
DWIDTH 16 0
BBX 5 3 6 20
VVECTOR 9 23
SWIDTH1 0 -1000
DWIDTH1 0 -29
BITMAP 
E0
70
38
ENDCHAR
STARTCHAR char61
ENCODING 97
SWIDTH 483 0
DWIDTH 14 0
BBX 12 14 1 0
VVECTOR 7 23
SWIDTH1 0 -1000
DWIDTH1 0 -29
BITMAP 
0F80
3FE0
7FF0
7070
0070
03F0
1FF0
7E70
F870
E070
E0F0
F3F0
7FB0
1E30
ENDCHAR
STARTCHAR char62
ENCODING 98
SWIDTH 552 0
DWIDTH 16 0
BBX 13 20 2 0
VVECTOR 9 23
SWIDTH1 0 -1000
DWIDTH1 0 -29
BITMAP 
E000
E000
E000
E000
E000
E000
E780
FFE0
FFF0
F078
E038
E038
E038
E038
E038
E038
F078
FFF0
FFE0
E780
ENDCHAR
STARTCHAR char63
ENCODING 99
SWIDTH 483 0
DWIDTH 14 0
BBX 12 14 1 0
VVECTOR 7 23
SWIDTH1 0 -1000
DWIDTH1 0 -29
BITMAP 
0F00
3FC0
7FE0
F0F0
E070
E070
E000
E000
E070
E070
F0F0
7FE0
3FC0
0F00
ENDCHAR
STARTCHAR char64
ENCODING 100
SWIDTH 552 0
DWIDTH 16 0
BBX 13 20 1 0
VVECTOR 8 23
SWIDTH1 0 -1000
DWIDTH1 0 -29
BITMAP 
0038
0038
0038
0038
0038
0038
0F38
3FF8
7FF8
F078
E038
E038
E038
E038
E038
E038
F078
7FF8
3FF8
0F38
ENDCHAR
STARTCHAR char65
ENCODING 101
SWIDTH 483 0
DWIDTH 14 0
BBX 12 14 1 0
VVECTOR 7 23
SWIDTH1 0 -1000
DWIDTH1 0 -29
BITMAP 
0F00
3FC0
7FE0
F0F0
E070
FFF0
FFF0
FFF0
E000
E000
F070
7FF0
3FE0
0F80
ENDCHAR
STARTCHAR char66
ENCODING 102
SWIDTH 310 0
DWIDTH 9 0
BBX 7 20 1 0
VVECTOR 5 23
SWIDTH1 0 -1000
DWIDTH1 0 -29
BITMAP 
1E
3E
3E
38
38
38
FE
FE
FE
38
38
38
38
38
38
38
38
38
38
38
ENDCHAR
STARTCHAR char67
ENCODING 103
SWIDTH 552 0
DWIDTH 16 0
BBX 13 20 1 -6
VVECTOR 8 23
SWIDTH1 0 -1000
DWIDTH1 0 -29
BITMAP 
0F38
3FF8
7FF8
F078
E038
E038
E038
E038
E038
E038
F078
7FF8
3FF8
0F38
0038
0038
7078
7FF0
3FE0
0F80
ENDCHAR
STARTCHAR char68
ENCODING 104
SWIDTH 552 0
DWIDTH 16 0
BBX 12 20 2 0
VVECTOR 8 23
SWIDTH1 0 -1000
DWIDTH1 0 -29
BITMAP 
E000
E000
E000
E000
E000
E000
E780
FFE0
FFF0
F0F0
E070
E070
E070
E070
E070
E070
E070
E070
E070
E070
ENDCHAR
STARTCHAR char69
ENCODING 105
SWIDTH 241 0
DWIDTH 7 0
BBX 3 20 2 0
VVECTOR 4 23
SWIDTH1 0 -1000
DWIDTH1 0 -29
BITMAP 
E0
E0
E0
00
00
00
E0
E0
E0
E0
E0
E0
E0
E0
E0
E0
E0
E0
E0
E0
ENDCHAR
STARTCHAR char6A
ENCODING 106
SWIDTH 241 0
DWIDTH 7 0
BBX 5 26 0 -6
VVECTOR 3 23
SWIDTH1 0 -1000
DWIDTH1 0 -29
BITMAP 
38
38
38
00
00
00
38
38
38
38
38
38
38
38
38
38
38
38
38
38
38
38
38
F8
F8
F0
ENDCHAR
STARTCHAR char6B
ENCODING 107
SWIDTH 517 0
DWIDTH 15 0
BBX 13 20 1 0
VVECTOR 8 23
SWIDTH1 0 -1000
DWIDTH1 0 -29
BITMAP 
E000
E000
E000
E000
E000
E000
E078
E0F0
E1E0
E3C0
E780
EF00
FE00
FE00
EF00
E780
E3C0
E1E0
E0F0
E078
ENDCHAR
STARTCHAR char6C
ENCODING 108
SWIDTH 241 0
DWIDTH 7 0
BBX 3 20 2 0
VVECTOR 4 23
SWIDTH1 0 -1000
DWIDTH1 0 -29
BITMAP 
E0
E0
E0
E0
E0
E0
E0
E0
E0
E0
E0
E0
E0
E0
E0
E0
E0
E0
E0
E0
ENDCHAR
STARTCHAR char6D
ENCODING 109
SWIDTH 793 0
DWIDTH 23 0
BBX 19 14 2 0
VVECTOR 12 23
SWIDTH1 0 -1000
DWIDTH1 0 -29
BITMAP 
E78780
FFDFC0
FFFFE0
F1F1E0
E0E0E0
E0E0E0
E0E0E0
E0E0E0
E0E0E0
E0E0E0
E0E0E0
E0E0E0
E0E0E0
E0E0E0
ENDCHAR
STARTCHAR char6E
ENCODING 110
SWIDTH 552 0
DWIDTH 16 0
BBX 12 14 2 0
VVECTOR 8 23
SWIDTH1 0 -1000
DWIDTH1 0 -29
BITMAP 
E780
FFE0
FFF0
F0F0
E070
E070
E070
E070
E070
E070
E070
E070
E070
E070
ENDCHAR
STARTCHAR char6F
ENCODING 111
SWIDTH 517 0
DWIDTH 15 0
BBX 13 14 1 0
VVECTOR 8 23
SWIDTH1 0 -1000
DWIDTH1 0 -29
BITMAP 
0F80
3FE0
7FF0
F078
E038
E038
E038
E038
E038
E038
F078
7FF0
3FE0
0F80
ENDCHAR
STARTCHAR char70
ENCODING 112
SWIDTH 552 0
DWIDTH 16 0
BBX 13 20 2 -6
VVECTOR 9 23
SWIDTH1 0 -1000
DWIDTH1 0 -29
BITMAP 
E780
FFE0
FFF0
F078
E038
E038
E038
E038
E038
E038
F078
FFF0
FFE0
E780
E000
E000
E000
E000
E000
E000
ENDCHAR
STARTCHAR char71
ENCODING 113
SWIDTH 552 0
DWIDTH 16 0
BBX 13 20 1 -6
VVECTOR 8 23
SWIDTH1 0 -1000
DWIDTH1 0 -29
BITMAP 
0F38
3FF8
7FF8
F078
E038
E038
E038
E038
E038
E038
F078
7FF8
3FF8
0F38
0038
0038
0038
0038
0038
0038
ENDCHAR
STARTCHAR char72
ENCODING 114
SWIDTH 345 0
DWIDTH 10 0
BBX 7 14 2 0
VVECTOR 6 23
SWIDTH1 0 -1000
DWIDTH1 0 -29
BITMAP 
CE
DE
FE
F8
F0
E0
E0
E0
E0
E0
E0
E0
E0
E0
ENDCHAR
STARTCHAR char73
ENCODING 115
SWIDTH 448 0
DWIDTH 13 0
BBX 11 14 1 0
VVECTOR 7 23
SWIDTH1 0 -1000
DWIDTH1 0 -29
BITMAP 
1F00
7FC0
FFE0
E0E0
F000
7C00
3F00
0FC0
03E0
00E0
E0E0
FFE0
7FC0
1F00
ENDCHAR
STARTCHAR char74
ENCODING 116
SWIDTH 310 0
DWIDTH 9 0
BBX 7 18 1 0
VVECTOR 5 23
SWIDTH1 0 -1000
DWIDTH1 0 -29
BITMAP 
38
38
38
38
FE
FE
FE
38
38
38
38
38
38
38
38
3E
3E
1E
ENDCHAR
STARTCHAR char75
ENCODING 117
SWIDTH 552 0
DWIDTH 16 0
BBX 12 14 2 0
VVECTOR 8 23
SWIDTH1 0 -1000
DWIDTH1 0 -29
BITMAP 
E070
E070
E070
E070
E070
E070
E070
E070
E070
E070
F0F0
FFF0
7FF0
1E70
ENDCHAR
STARTCHAR char76
ENCODING 118
SWIDTH 517 0
DWIDTH 15 0
BBX 13 14 1 0
VVECTOR 8 23
SWIDTH1 0 -1000
DWIDTH1 0 -29
BITMAP 
E038
E038
E038
7070
7070
7070
38E0
38E0
38E0
1DC0
1DC0
0F80
0F80
0700
ENDCHAR
STARTCHAR char77
ENCODING 119
SWIDTH 793 0
DWIDTH 23 0
BBX 21 14 1 0
VVECTOR 12 23
SWIDTH1 0 -1000
DWIDTH1 0 -29
BITMAP 
E00038
E00038
E07038
707070
70F870
70F870
39DCE0
39DCE0
39DCE0
1B8DC0
1B8DC0
1F8FC0
0F0780
0F0780
ENDCHAR
STARTCHAR char78
ENCODING 120
SWIDTH 517 0
DWIDTH 15 0
BBX 13 14 1 0
VVECTOR 8 23
SWIDTH1 0 -1000
DWIDTH1 0 -29
BITMAP 
E038
F078
78F0
3DE0
1FC0
0F80
0700
0700
0F80
1FC0
3DE0
78F0
F078
E038
ENDCHAR
STARTCHAR char79
ENCODING 121
SWIDTH 552 0
DWIDTH 16 0
BBX 14 20 1 -6
VVECTOR 8 23
SWIDTH1 0 -1000
DWIDTH1 0 -29
BITMAP 
E01C
E01C
E038
7038
7038
7070
3870
38E0
38E0
1CE0
1DC0
0DC0
0F80
0F80
0700
0700
0E00
1E00
FC00
F000
ENDCHAR
STARTCHAR char7A
ENCODING 122
SWIDTH 483 0
DWIDTH 14 0
BBX 11 14 2 0
VVECTOR 8 23
SWIDTH1 0 -1000
DWIDTH1 0 -29
BITMAP 
FFE0
FFE0
FFE0
01C0
0380
0700
0700
0E00
1C00
3800
3800
7FE0
FFE0
FFE0
ENDCHAR
STARTCHAR char7B
ENCODING 123
SWIDTH 310 0
DWIDTH 9 0
BBX 7 28 1 -6
VVECTOR 5 23
SWIDTH1 0 -1000
DWIDTH1 0 -29
BITMAP 
1E
3E
3E
38
38
38
38
38
38
38
38
38
70
E0
70
38
38
38
38
38
38
38
38
38
38
3E
3E
1E
ENDCHAR
STARTCHAR char7C
ENCODING 124
SWIDTH 172 0
DWIDTH 5 0
BBX 2 24 2 -3
VVECTOR 3 23
SWIDTH1 0 -1000
DWIDTH1 0 -29
BITMAP 
C0
C0
C0
C0
C0
C0
C0
C0
C0
C0
C0
C0
C0
C0
C0
C0
C0
C0
C0
C0
C0
C0
C0
C0
ENDCHAR
STARTCHAR char7D
ENCODING 125
SWIDTH 310 0
DWIDTH 9 0
BBX 7 28 1 -6
VVECTOR 5 23
SWIDTH1 0 -1000
DWIDTH1 0 -29
BITMAP 
F0
F8
F8
38
38
38
38
38
38
38
38
38
1C
0E
1C
38
38
38
38
38
38
38
38
38
38
F8
F8
F0
ENDCHAR
STARTCHAR char7E
ENCODING 126
SWIDTH 552 0
DWIDTH 16 0
BBX 9 3 3 20
VVECTOR 8 23
SWIDTH1 0 -1000
DWIDTH1 0 -29
BITMAP 
7880
9C80
8F00
ENDCHAR
STARTCHAR char80
ENCODING 128
SWIDTH 655 0
DWIDTH 19 0
BBX 17 23 1 0
VVECTOR 10 23
SWIDTH1 0 -1000
DWIDTH1 0 -29
BITMAP 
1C1C00
1C1C00
000000
01C000
03E000
03E000
077000
077000
0E3800
0E3800
0E3800
1C1C00
1C1C00
1C1C00
3FFE00
3FFE00
3FFE00
700700
700700
700700
E00380
E00380
E00380
ENDCHAR
STARTCHAR char81
ENCODING 129
SWIDTH 655 0
DWIDTH 19 0
BBX 17 23 1 0
VVECTOR 10 23
SWIDTH1 0 -1000
DWIDTH1 0 -29
BITMAP 
03E000
063000
063000
063000
03E000
03E000
077000
077000
0E3800
0E3800
0E3800
1C1C00
1C1C00
1C1C00
3FFE00
3FFE00
3FFE00
700700
700700
700700
E00380
E00380
E00380
ENDCHAR
STARTCHAR char82
ENCODING 130
SWIDTH 690 0
DWIDTH 20 0
BBX 18 25 1 -5
VVECTOR 10 23
SWIDTH1 0 -1000
DWIDTH1 0 -29
BITMAP 
03F800
0FFE00
3FFF00
7C0F80
700380
E001C0
E001C0
E001C0
E00000
E00000
E00000
E00000
E001C0
E001C0
E001C0
700380
7C0F80
3FFF00
0FFE00
03F800
00C000
01E000
003000
043000
03E000
ENDCHAR
STARTCHAR char83
ENCODING 131
SWIDTH 586 0
DWIDTH 17 0
BBX 14 23 2 0
VVECTOR 9 23
SWIDTH1 0 -1000
DWIDTH1 0 -29
BITMAP 
01C0
0380
0000
FFFC
FFFC
FFFC
E000
E000
E000
E000
E000
FFF0
FFF0
FFF0
E000
E000
E000
E000
E000
E000
FFFC
FFFC
FFFC
ENDCHAR
STARTCHAR char84
ENCODING 132
SWIDTH 724 0
DWIDTH 21 0
BBX 17 23 2 0
VVECTOR 11 23
SWIDTH1 0 -1000
DWIDTH1 0 -29
BITMAP 
078800
09C800
08F000
000000
E00380
F00380
F80380
FC0380
EE0380
EE0380
E70380
E38380
E1C380
E1C380
E0E380
E07380
E03B80
E03B80
E01F80
E00F80
E00780
E00380
E00180
ENDCHAR
STARTCHAR char85
ENCODING 133
SWIDTH 724 0
DWIDTH 21 0
BBX 19 23 1 0
VVECTOR 11 23
SWIDTH1 0 -1000
DWIDTH1 0 -29
BITMAP 
0E0E00
0E0E00
000000
000000
03F800
0FFE00
3FFF80
7C07C0
7001C0
E000E0
E000E0
E000E0
E000E0
E000E0
E000E0
E000E0
E000E0
E000E0
7001C0
7C07C0
3FFF80
0FFE00
03F800
ENDCHAR
STARTCHAR char86
ENCODING 134
SWIDTH 690 0
DWIDTH 20 0
BBX 16 23 2 0
VVECTOR 10 23
SWIDTH1 0 -1000
DWIDTH1 0 -29
BITMAP 
1C38
1C38
0000
0000
E007
E007
E007
E007
E007
E007
E007
E007
E007
E007
E007
E007
E007
E007
E007
F00F
7FFE
3FFC
0FF0
ENDCHAR
STARTCHAR char87
ENCODING 135
SWIDTH 483 0
DWIDTH 14 0
BBX 12 19 1 0
VVECTOR 7 23
SWIDTH1 0 -1000
DWIDTH1 0 -29
BITMAP 
01C0
0380
0700
0000
0000
0F80
3FE0
7FF0
7070
0070
03F0
1FF0
7E70
F870
E070
E0F0
F3F0
7FB0
1E30
ENDCHAR
STARTCHAR char88
ENCODING 136
SWIDTH 483 0
DWIDTH 14 0
BBX 12 19 1 0
VVECTOR 7 23
SWIDTH1 0 -1000
DWIDTH1 0 -29
BITMAP 
1C00
0E00
0700
0000
0000
0F80
3FE0
7FF0
7070
0070
03F0
1FF0
7E70
F870
E070
E0F0
F3F0
7FB0
1E30
ENDCHAR
STARTCHAR char89
ENCODING 137
SWIDTH 483 0
DWIDTH 14 0
BBX 12 20 1 0
VVECTOR 7 23
SWIDTH1 0 -1000
DWIDTH1 0 -29
BITMAP 
0700
0F80
1DC0
38E0
0000
0000
0F80
3FE0
7FF0
7070
0070
03F0
1FF0
7E70
F870
E070
E0F0
F3F0
7FB0
1E30
ENDCHAR
STARTCHAR char8A
ENCODING 138
SWIDTH 483 0
DWIDTH 14 0
BBX 12 18 1 0
VVECTOR 7 23
SWIDTH1 0 -1000
DWIDTH1 0 -29
BITMAP 
38E0
38E0
0000
0000
0F80
3FE0
7FF0
7070
0070
03F0
1FF0
7E70
F870
E070
E0F0
F3F0
7FB0
1E30
ENDCHAR
STARTCHAR char8B
ENCODING 139
SWIDTH 483 0
DWIDTH 14 0
BBX 12 19 1 0
VVECTOR 7 23
SWIDTH1 0 -1000
DWIDTH1 0 -29
BITMAP 
1E20
2720
23C0
0000
0000
0F80
3FE0
7FF0
7070
0070
03F0
1FF0
7E70
F870
E070
E0F0
F3F0
7FB0
1E30
ENDCHAR
STARTCHAR char8C
ENCODING 140
SWIDTH 483 0
DWIDTH 14 0
BBX 12 20 1 0
VVECTOR 7 23
SWIDTH1 0 -1000
DWIDTH1 0 -29
BITMAP 
0780
0CC0
0CC0
0780
0000
0000
0F80
3FE0
7FF0
7070
0070
03F0
1FF0
7E70
F870
E070
E0F0
F3F0
7FB0
1E30
ENDCHAR
STARTCHAR char8D
ENCODING 141
SWIDTH 483 0
DWIDTH 14 0
BBX 12 19 1 -5
VVECTOR 7 23
SWIDTH1 0 -1000
DWIDTH1 0 -29
BITMAP 
0F00
3FC0
7FE0
F0F0
E070
E070
E000
E000
E070
E070
F0F0
7FE0
3FC0
0F80
0200
0700
0180
1180
0F00
ENDCHAR
STARTCHAR char8E
ENCODING 142
SWIDTH 483 0
DWIDTH 14 0
BBX 12 19 1 0
VVECTOR 7 23
SWIDTH1 0 -1000
DWIDTH1 0 -29
BITMAP 
01C0
0380
0700
0000
0000
0F00
3FC0
7FE0
F0F0
E070
FFF0
FFF0
FFF0
E000
E000
F070
7FF0
3FE0
0F80
ENDCHAR
STARTCHAR char8F
ENCODING 143
SWIDTH 483 0
DWIDTH 14 0
BBX 12 19 1 0
VVECTOR 7 23
SWIDTH1 0 -1000
DWIDTH1 0 -29
BITMAP 
1C00
0E00
0700
0000
0000
0F00
3FC0
7FE0
F0F0
E070
FFF0
FFF0
FFF0
E000
E000
F070
7FF0
3FE0
0F80
ENDCHAR
STARTCHAR char90
ENCODING 144
SWIDTH 483 0
DWIDTH 14 0
BBX 12 20 1 0
VVECTOR 7 23
SWIDTH1 0 -1000
DWIDTH1 0 -29
BITMAP 
0600
0F00
1F80
39C0
0000
0000
0F00
3FC0
7FE0
F0F0
E070
FFF0
FFF0
FFF0
E000
E000
F070
7FF0
3FE0
0F80
ENDCHAR
STARTCHAR char91
ENCODING 145
SWIDTH 483 0
DWIDTH 14 0
BBX 12 18 1 0
VVECTOR 7 23
SWIDTH1 0 -1000
DWIDTH1 0 -29
BITMAP 
38E0
38E0
0000
0000
0F00
3FC0
7FE0
F0F0
E070
FFF0
FFF0
FFF0
E000
E000
F070
7FF0
3FE0
0F80
ENDCHAR
STARTCHAR char92
ENCODING 146
SWIDTH 241 0
DWIDTH 7 0
BBX 5 19 2 0
VVECTOR 5 23
SWIDTH1 0 -1000
DWIDTH1 0 -29
BITMAP 
38
70
E0
00
00
E0
E0
E0
E0
E0
E0
E0
E0
E0
E0
E0
E0
E0
E0
ENDCHAR
STARTCHAR char93
ENCODING 147
SWIDTH 241 0
DWIDTH 7 0
BBX 5 19 0 0
VVECTOR 3 23
SWIDTH1 0 -1000
DWIDTH1 0 -29
BITMAP 
E0
70
38
00
00
38
38
38
38
38
38
38
38
38
38
38
38
38
38
ENDCHAR
STARTCHAR char94
ENCODING 148
SWIDTH 241 0
DWIDTH 7 0
BBX 7 19 0 0
VVECTOR 4 23
SWIDTH1 0 -1000
DWIDTH1 0 -29
BITMAP 
38
6C
C6
00
00
38
38
38
38
38
38
38
38
38
38
38
38
38
38
ENDCHAR
STARTCHAR char95
ENCODING 149
SWIDTH 241 0
DWIDTH 7 0
BBX 7 18 0 0
VVECTOR 4 23
SWIDTH1 0 -1000
DWIDTH1 0 -29
BITMAP 
C6
C6
00
00
38
38
38
38
38
38
38
38
38
38
38
38
38
38
ENDCHAR
STARTCHAR char96
ENCODING 150
SWIDTH 552 0
DWIDTH 16 0
BBX 12 19 2 0
VVECTOR 8 23
SWIDTH1 0 -1000
DWIDTH1 0 -29
BITMAP 
1E20
2720
23C0
0000
0000
E780
FFE0
FFF0
F0F0
E070
E070
E070
E070
E070
E070
E070
E070
E070
E070
ENDCHAR
STARTCHAR char97
ENCODING 151
SWIDTH 517 0
DWIDTH 15 0
BBX 13 19 1 0
VVECTOR 8 23
SWIDTH1 0 -1000
DWIDTH1 0 -29
BITMAP 
01C0
0380
0700
0000
0000
0F80
3FE0
7FF0
F078
E038
E038
E038
E038
E038
E038
F078
7FF0
3FE0
0F80
ENDCHAR
STARTCHAR char98
ENCODING 152
SWIDTH 517 0
DWIDTH 15 0
BBX 13 19 1 0
VVECTOR 8 23
SWIDTH1 0 -1000
DWIDTH1 0 -29
BITMAP 
1C00
0E00
0700
0000
0000
0F80
3FE0
7FF0
F078
E038
E038
E038
E038
E038
E038
F078
7FF0
3FE0
0F80
ENDCHAR
STARTCHAR char99
ENCODING 153
SWIDTH 517 0
DWIDTH 15 0
BBX 13 20 1 0
VVECTOR 8 23
SWIDTH1 0 -1000
DWIDTH1 0 -29
BITMAP 
0700
0F80
1DC0
38E0
0000
0000
0F80
3FE0
7FF0
F078
E038
E038
E038
E038
E038
E038
F078
7FF0
3FE0
0F80
ENDCHAR
STARTCHAR char9A
ENCODING 154
SWIDTH 517 0
DWIDTH 15 0
BBX 13 18 1 0
VVECTOR 8 23
SWIDTH1 0 -1000
DWIDTH1 0 -29
BITMAP 
38E0
38E0
0000
0000
0F80
3FE0
7FF0
F078
E038
E038
E038
E038
E038
E038
F078
7FF0
3FE0
0F80
ENDCHAR
STARTCHAR char9B
ENCODING 155
SWIDTH 517 0
DWIDTH 15 0
BBX 13 19 1 0
VVECTOR 8 23
SWIDTH1 0 -1000
DWIDTH1 0 -29
BITMAP 
1E20
2720
23C0
0000
0000
0F80
3FE0
7FF0
F078
E038
E038
E038
E038
E038
E038
F078
7FF0
3FE0
0F80
ENDCHAR
STARTCHAR char9C
ENCODING 156
SWIDTH 552 0
DWIDTH 16 0
BBX 12 19 2 0
VVECTOR 8 23
SWIDTH1 0 -1000
DWIDTH1 0 -29
BITMAP 
01C0
0380
0700
0000
0000
E070
E070
E070
E070
E070
E070
E070
E070
E070
E070
F0F0
FFF0
7FF0
1E70
ENDCHAR
STARTCHAR char9D
ENCODING 157
SWIDTH 552 0
DWIDTH 16 0
BBX 12 19 2 0
VVECTOR 8 23
SWIDTH1 0 -1000
DWIDTH1 0 -29
BITMAP 
1C00
0E00
0700
0000
0000
E070
E070
E070
E070
E070
E070
E070
E070
E070
E070
F0F0
FFF0
7FF0
1E70
ENDCHAR
STARTCHAR char9E
ENCODING 158
SWIDTH 552 0
DWIDTH 16 0
BBX 12 20 2 0
VVECTOR 8 23
SWIDTH1 0 -1000
DWIDTH1 0 -29
BITMAP 
0600
0F00
1F80
39C0
0000
0000
E070
E070
E070
E070
E070
E070
E070
E070
E070
E070
F0F0
FFF0
7FF0
1E70
ENDCHAR
STARTCHAR char9F
ENCODING 159
SWIDTH 552 0
DWIDTH 16 0
BBX 12 18 2 0
VVECTOR 8 23
SWIDTH1 0 -1000
DWIDTH1 0 -29
BITMAP 
39C0
39C0
0000
0000
E070
E070
E070
E070
E070
E070
E070
E070
E070
E070
F0F0
FFF0
7FF0
1E70
ENDCHAR
STARTCHAR charA0
ENCODING 160
SWIDTH 552 0
DWIDTH 16 0
BBX 14 20 1 0
VVECTOR 8 23
SWIDTH1 0 -1000
DWIDTH1 0 -29
BITMAP 
0300
0300
0300
0300
0300
FFFC
FFFC
0300
0300
0300
0300
0300
0300
0300
0300
0300
0300
0300
0300
0300
ENDCHAR
STARTCHAR charA1
ENCODING 161
SWIDTH 310 0
DWIDTH 9 0
BBX 6 7 1 13
VVECTOR 4 23
SWIDTH1 0 -1000
DWIDTH1 0 -29
BITMAP 
78
FC
CC
CC
CC
FC
78
ENDCHAR
STARTCHAR charA2
ENCODING 162
SWIDTH 552 0
DWIDTH 16 0
BBX 13 19 2 0
VVECTOR 9 23
SWIDTH1 0 -1000
DWIDTH1 0 -29
BITMAP 
0200
0200
0200
0F80
3FE0
7FF0
F278
E238
E200
E200
E200
E238
F278
7FF0
3FE0
0F80
0200
0200
0200
ENDCHAR
STARTCHAR charA3
ENCODING 163
SWIDTH 552 0
DWIDTH 16 0
BBX 14 20 1 0
VVECTOR 8 23
SWIDTH1 0 -1000
DWIDTH1 0 -29
BITMAP 
0780
1FE0
3FF0
3CF0
3870
3870
3800
3800
FF80
FF80
FF80
3800
3800
3800
3800
3800
381C
FFFC
FFFC
FFF0
ENDCHAR
STARTCHAR charA4
ENCODING 164
SWIDTH 310 0
DWIDTH 9 0
BBX 7 20 1 0
VVECTOR 5 23
SWIDTH1 0 -1000
DWIDTH1 0 -29
BITMAP 
78
FC
CC
C0
E0
70
78
DC
CE
C6
C6
E6
76
3C
1C
0E
06
66
7E
3C
ENDCHAR
STARTCHAR charA5
ENCODING 165
SWIDTH 310 0
DWIDTH 9 0
BBX 6 6 1 8
VVECTOR 4 23
SWIDTH1 0 -1000
DWIDTH1 0 -29
BITMAP 
78
FC
FC
FC
FC
78
ENDCHAR
STARTCHAR charA6
ENCODING 166
SWIDTH 552 0
DWIDTH 16 0
BBX 13 20 2 0
VVECTOR 9 23
SWIDTH1 0 -1000
DWIDTH1 0 -29
BITMAP 
1E78
7E78
E660
C660
C660
C660
C660
E660
7E60
1E60
0660
0660
0660
0660
0660
0660
0660
0660
0660
0660
ENDCHAR
STARTCHAR charA7
ENCODING 167
SWIDTH 586 0
DWIDTH 17 0
BBX 14 20 2 0
VVECTOR 9 23
SWIDTH1 0 -1000
DWIDTH1 0 -29
BITMAP 
1FC0
7FF0
FFF8
F078
E038
E038
E038
E078
E3F0
E3E0
E3F0
E078
E03C
E01C
E01C
E01C
E03C
E7FC
E7F8
E7E0
ENDCHAR
STARTCHAR charA8
ENCODING 168
SWIDTH 793 0
DWIDTH 23 0
BBX 19 17 2 1
VVECTOR 12 23
SWIDTH1 0 -1000
DWIDTH1 0 -29
BITMAP 
03F800
0C0600
100100
200080
400040
43F040
831820
831820
83F020
833020
831820
430C40
400040
200080
100100
0C0600
03F800
ENDCHAR
STARTCHAR charA9
ENCODING 169
SWIDTH 793 0
DWIDTH 23 0
BBX 19 17 2 1
VVECTOR 12 23
SWIDTH1 0 -1000
DWIDTH1 0 -29
BITMAP 
03F800
0C0600
100100
200080
400040
41F040
831820
830020
830020
830020
831820
41F040
400040
200080
100100
0C0600
03F800
ENDCHAR
STARTCHAR charAA
ENCODING 170
SWIDTH 552 0
DWIDTH 16 0
BBX 13 4 1 16
VVECTOR 8 23
SWIDTH1 0 -1000
DWIDTH1 0 -29
BITMAP 
FA08
2318
22A8
2248
ENDCHAR
STARTCHAR charAB
ENCODING 171
SWIDTH 552 0
DWIDTH 16 0
BBX 5 3 6 20
VVECTOR 9 23
SWIDTH1 0 -1000
DWIDTH1 0 -29
BITMAP 
38
70
E0
ENDCHAR
STARTCHAR charAC
ENCODING 172
SWIDTH 552 0
DWIDTH 16 0
BBX 9 2 4 21
VVECTOR 9 23
SWIDTH1 0 -1000
DWIDTH1 0 -29
BITMAP 
C180
C180
ENDCHAR
STARTCHAR charAD
ENCODING 173
SWIDTH 793 0
DWIDTH 23 0
BBX 19 15 2 3
VVECTOR 12 23
SWIDTH1 0 -1000
DWIDTH1 0 -29
BITMAP 
000180
000300
000600
FFFFE0
FFFFE0
FFFFE0
003000
006000
00C000
FFFFE0
FFFFE0
FFFFE0
060000
0C0000
180000
ENDCHAR
STARTCHAR charAE
ENCODING 174
SWIDTH 897 0
DWIDTH 26 0
BBX 24 20 1 0
VVECTOR 13 23
SWIDTH1 0 -1000
DWIDTH1 0 -29
BITMAP 
03FFFF
03FFFF
07FFFF
070E00
070E00
0E0E00
0E0E00
0E0E00
1C0FFC
1C0FFC
1FFFFC
3FFE00
3FFE00
380E00
700E00
700E00
700E00
E00FFF
E00FFF
E00FFF
ENDCHAR
STARTCHAR charAF
ENCODING 175
SWIDTH 724 0
DWIDTH 21 0
BBX 19 20 1 0
VVECTOR 11 23
SWIDTH1 0 -1000
DWIDTH1 0 -29
BITMAP 
03F800
0FFE40
3FFF80
7807C0
7003C0
E004E0
E008E0
E010E0
E020E0
E040E0
E080E0
E100E0
E200E0
E400E0
E800E0
7001C0
7C07C0
BFFF80
0FFE00
03F800
ENDCHAR
STARTCHAR charB0
ENCODING 176
SWIDTH 793 0
DWIDTH 23 0
BBX 21 10 1 5
VVECTOR 12 23
SWIDTH1 0 -1000
DWIDTH1 0 -29
BITMAP 
1E01C0
7F87F0
E1CE38
C0FC18
C07818
C0F018
C1F818
E39C38
7F0FF0
1C03C0
ENDCHAR
STARTCHAR charB1
ENCODING 177
SWIDTH 793 0
DWIDTH 23 0
BBX 19 19 2 0
VVECTOR 12 23
SWIDTH1 0 -1000
DWIDTH1 0 -29
BITMAP 
00E000
00E000
00E000
00E000
00E000
00E000
FFFFE0
FFFFE0
FFFFE0
00E000
00E000
00E000
00E000
00E000
00E000
000000
FFFFE0
FFFFE0
FFFFE0
ENDCHAR
STARTCHAR charB2
ENCODING 178
SWIDTH 552 0
DWIDTH 16 0
BBX 14 17 1 0
VVECTOR 8 23
SWIDTH1 0 -1000
DWIDTH1 0 -29
BITMAP 
00E0
01C0
0380
0700
0E00
1C00
3800
1C00
0E00
0700
0380
01C0
00E0
0000
0000
FFFC
FFFC
ENDCHAR
STARTCHAR charB3
ENCODING 179
SWIDTH 552 0
DWIDTH 16 0
BBX 14 17 1 0
VVECTOR 8 23
SWIDTH1 0 -1000
DWIDTH1 0 -29
BITMAP 
1C00
0E00
0700
0380
01C0
00E0
0070
00E0
01C0
0380
0700
0E00
1C00
0000
0000
FFFC
FFFC
ENDCHAR
STARTCHAR charB4
ENCODING 180
SWIDTH 552 0
DWIDTH 16 0
BBX 15 20 0 0
VVECTOR 8 23
SWIDTH1 0 -1000
DWIDTH1 0 -29
BITMAP 
E00E
E00E
701C
701C
3838
3838
1C70
1C70
0EE0
07C0
7FFC
7FFC
0380
0380
7FFC
7FFC
0380
0380
0380
0380
ENDCHAR
STARTCHAR charB5
ENCODING 181
SWIDTH 552 0
DWIDTH 16 0
BBX 14 17 1 -3
VVECTOR 8 23
SWIDTH1 0 -1000
DWIDTH1 0 -29
BITMAP 
E070
E070
E070
E070
E070
E070
E070
E070
E070
E070
F0F0
FFFC
FFFC
EF9C
E000
E000
E000
ENDCHAR
STARTCHAR charB6
ENCODING 182
SWIDTH 552 0
DWIDTH 16 0
BBX 13 20 1 0
VVECTOR 8 23
SWIDTH1 0 -1000
DWIDTH1 0 -29
BITMAP 
0F80
0FE0
0FF0
0078
0038
0038
0F38
3FF8
7FF8
F078
E038
E038
E038
E038
E038
E038
F078
7FF0
3FE0
0F80
ENDCHAR
STARTCHAR charB7
ENCODING 183
SWIDTH 793 0
DWIDTH 23 0
BBX 20 27 1 -5
VVECTOR 11 23
SWIDTH1 0 -1000
DWIDTH1 0 -29
BITMAP 
FFFF00
FFFF80
FFFFC0
780060
3C0030
1E0000
0F0000
078000
03C000
01E000
00F000
007800
003C00
001E00
003C00
007800
00F000
01E000
03C000
078000
0F0000
1E0000
3C0030
780060
FFFFC0
FFFF80
FFFF00
ENDCHAR
STARTCHAR charB8
ENCODING 184
SWIDTH 793 0
DWIDTH 23 0
BBX 21 20 1 0
VVECTOR 12 23
SWIDTH1 0 -1000
DWIDTH1 0 -29
BITMAP 
FFFFF8
FFFFF8
FFFFF8
0E0380
0E0380
0E0380
0E0380
0E0380
0E0380
0E0380
0E0380
0E0380
0E0380
0E0380
0E0380
0E0380
0E0380
0E0380
0E0380
0E0380
ENDCHAR
STARTCHAR charB9
ENCODING 185
SWIDTH 793 0
DWIDTH 23 0
BBX 20 15 1 0
VVECTOR 11 23
SWIDTH1 0 -1000
DWIDTH1 0 -29
BITMAP 
000010
000030
3FFFF0
7FFFE0
FFFFC0
C70E00
870E00
070E00
0E0E00
0E0E00
0E0E00
0E0E00
1C0E00
1C0E00
1C0E00
ENDCHAR
STARTCHAR charBA
ENCODING 186
SWIDTH 310 0
DWIDTH 9 0
BBX 7 28 1 -6
VVECTOR 5 23
SWIDTH1 0 -1000
DWIDTH1 0 -29
BITMAP 
1E
3E
3E
38
38
38
38
38
38
38
38
38
38
38
38
38
38
38
38
38
38
38
38
38
38
F8
F8
F0
ENDCHAR
STARTCHAR charBB
ENCODING 187
SWIDTH 483 0
DWIDTH 14 0
BBX 12 20 1 0
VVECTOR 7 23
SWIDTH1 0 -1000
DWIDTH1 0 -29
BITMAP 
1F80
7FE0
FFF0
E070
0070
03F0
1FF0
7E70
F870
E070
E0F0
F3F0
7FB0
1E30
0000
0000
0000
FFF0
FFF0
FFF0
ENDCHAR
STARTCHAR charBC
ENCODING 188
SWIDTH 517 0
DWIDTH 15 0
BBX 13 20 1 0
VVECTOR 8 23
SWIDTH1 0 -1000
DWIDTH1 0 -29
BITMAP 
0F80
3FE0
7FF0
F078
E038
E038
E038
E038
E038
E038
F078
7FF0
3FE0
0F80
0000
0000
0000
7FF0
7FF0
7FF0
ENDCHAR
STARTCHAR charBD
ENCODING 189
SWIDTH 793 0
DWIDTH 23 0
BBX 21 20 1 0
VVECTOR 12 23
SWIDTH1 0 -1000
DWIDTH1 0 -29
BITMAP 
01FC00
07FF00
1FFFC0
3C01E0
7800F0
700070
700070
700070
700070
3800E0
3800E0
3800E0
1C01C0
1C01C0
0E0380
0E0380
870708
FF07F8
7F8FF0
3F8FE0
ENDCHAR
STARTCHAR charBE
ENCODING 190
SWIDTH 793 0
DWIDTH 23 0
BBX 21 14 1 0
VVECTOR 12 23
SWIDTH1 0 -1000
DWIDTH1 0 -29
BITMAP 
0F8780
3FCFE0
7FFFF0
707878
007038
03FFF8
1FFFF8
7E7FF8
F87000
E07000
E0F838
F3FFF8
7F9FF0
1E07C0
ENDCHAR
STARTCHAR charBF
ENCODING 191
SWIDTH 517 0
DWIDTH 15 0
BBX 13 14 1 0
VVECTOR 8 23
SWIDTH1 0 -1000
DWIDTH1 0 -29
BITMAP 
0F90
3FE0
7FF0
F078
E0B8
E138
E238
E238
E438
E838
F078
7FF0
3FE0
4F80
ENDCHAR
STARTCHAR charC0
ENCODING 192
SWIDTH 552 0
DWIDTH 16 0
BBX 14 20 1 0
VVECTOR 8 23
SWIDTH1 0 -1000
DWIDTH1 0 -29
BITMAP 
0700
0700
0700
0000
0000
0000
0700
0700
0F00
0E00
1E00
3C00
7800
F000
E01C
E01C
F03C
7FF8
3FF0
0FC0
ENDCHAR
STARTCHAR charC1
ENCODING 193
SWIDTH 310 0
DWIDTH 9 0
BBX 3 20 3 0
VVECTOR 5 23
SWIDTH1 0 -1000
DWIDTH1 0 -29
BITMAP 
E0
E0
E0
00
00
00
E0
E0
E0
E0
E0
E0
E0
E0
E0
E0
E0
E0
E0
E0
ENDCHAR
STARTCHAR charC2
ENCODING 194
SWIDTH 793 0
DWIDTH 23 0
BBX 19 9 2 3
VVECTOR 12 23
SWIDTH1 0 -1000
DWIDTH1 0 -29
BITMAP 
FFFFE0
FFFFE0
FFFFE0
0000E0
0000E0
0000E0
0000E0
0000E0
0000E0
ENDCHAR
STARTCHAR charC3
ENCODING 195
SWIDTH 793 0
DWIDTH 23 0
BBX 21 27 1 -5
VVECTOR 12 23
SWIDTH1 0 -1000
DWIDTH1 0 -29
BITMAP 
0000F8
0000F8
0000F8
0001C0
0001C0
0001C0
000380
000380
000380
000700
000700
000700
000E00
000E00
000E00
001C00
001C00
001C00
003800
003800
F83800
FC7000
0E7000
076000
03E000
01C000
00C000
ENDCHAR
STARTCHAR charC4
ENCODING 196
SWIDTH 517 0
DWIDTH 15 0
BBX 11 23 2 -3
VVECTOR 8 23
SWIDTH1 0 -1000
DWIDTH1 0 -29
BITMAP 
00E0
03E0
07E0
0F00
0E00
0E00
0E00
0E00
FFE0
FFE0
FFE0
0E00
0E00
0E00
0E00
0E00
0E00
0E00
0E00
1E00
FC00
F800
E000
ENDCHAR
STARTCHAR charC5
ENCODING 197
SWIDTH 793 0
DWIDTH 23 0
BBX 19 10 2 5
VVECTOR 12 23
SWIDTH1 0 -1000
DWIDTH1 0 -29
BITMAP 
3FC0E0
FFFFE0
FFFFE0
E07F80
000000
000000
3FC0E0
FFFFE0
FFFFE0
E07F80
ENDCHAR
STARTCHAR charC6
ENCODING 198
SWIDTH 793 0
DWIDTH 23 0
BBX 20 21 1 0
VVECTOR 11 23
SWIDTH1 0 -1000
DWIDTH1 0 -29
BITMAP 
006000
006000
00F000
00F000
01B800
01B800
031C00
031C00
060E00
060E00
0C0700
0C0700
180380
180380
3001C0
3001C0
6000E0
6000E0
FFFFF0
FFFFF0
FFFFF0
ENDCHAR
STARTCHAR charC7
ENCODING 199
SWIDTH 517 0
DWIDTH 15 0
BBX 12 9 1 4
VVECTOR 7 23
SWIDTH1 0 -1000
DWIDTH1 0 -29
BITMAP 
0C30
1860
30C0
6180
C300
6180
30C0
1860
0C30
ENDCHAR
STARTCHAR charC8
ENCODING 200
SWIDTH 552 0
DWIDTH 16 0
BBX 13 9 2 4
VVECTOR 9 23
SWIDTH1 0 -1000
DWIDTH1 0 -29
BITMAP 
C180
60C0
3060
1830
0C18
1830
3060
60C0
C180
ENDCHAR
STARTCHAR charC9
ENCODING 201
SWIDTH 793 0
DWIDTH 23 0
BBX 21 3 1 0
VVECTOR 12 23
SWIDTH1 0 -1000
DWIDTH1 0 -29
BITMAP 
E07038
E07038
E07038
ENDCHAR
STARTCHAR charCA
ENCODING 202
SWIDTH 310 0
DWIDTH 9 0
BBX 0 0 1 -6
VVECTOR 1 -6
SWIDTH1 0 0
DWIDTH1 0 0
BITMAP 
ENDCHAR
STARTCHAR charCB
ENCODING 203
SWIDTH 655 0
DWIDTH 19 0
BBX 17 23 1 0
VVECTOR 10 23
SWIDTH1 0 -1000
DWIDTH1 0 -29
BITMAP 
070000
038000
01C000
000000
01C000
03E000
03E000
077000
077000
0E3800
0E3800
1C1C00
1C1C00
1C1C00
3FFE00
3FFE00
3FFE00
700700
700700
700700
E00380
E00380
E00380
ENDCHAR
STARTCHAR charCC
ENCODING 204
SWIDTH 655 0
DWIDTH 19 0
BBX 17 23 1 0
VVECTOR 10 23
SWIDTH1 0 -1000
DWIDTH1 0 -29
BITMAP 
078800
09C800
08F000
000000
01C000
03E000
03E000
077000
077000
0E3800
0E3800
1C1C00
1C1C00
1C1C00
3FFE00
3FFE00
3FFE00
700700
700700
700700
E00380
E00380
E00380
ENDCHAR
STARTCHAR charCD
ENCODING 205
SWIDTH 724 0
DWIDTH 21 0
BBX 19 23 1 0
VVECTOR 11 23
SWIDTH1 0 -1000
DWIDTH1 0 -29
BITMAP 
03C400
04E400
047800
000000
000000
03F800
0FFE00
3FFF80
7807C0
7001C0
E000E0
E000E0
E000E0
E000E0
E000E0
E000E0
E000E0
E000E0
7001C0
7C07C0
3FFF80
0FFE00
03F800
ENDCHAR
STARTCHAR charCE
ENCODING 206
SWIDTH 1069 0
DWIDTH 31 0
BBX 29 20 1 0
VVECTOR 16 23
SWIDTH1 0 -1000
DWIDTH1 0 -29
BITMAP 
03F1FFF8
0FFDFFF8
3FFFFFF8
7C0FC000
7003C000
E001C000
E001C000
E001C000
E001FFE0
E001FFE0
E001FFE0
E001C000
E001C000
E001C000
E001C000
7003C000
7C0FC000
3FFFFFF8
0FFDFFF8
03F1FFF8
ENDCHAR
STARTCHAR charCF
ENCODING 207
SWIDTH 862 0
DWIDTH 25 0
BBX 23 14 1 0
VVECTOR 13 23
SWIDTH1 0 -1000
DWIDTH1 0 -29
BITMAP 
0F83E0
3FEFF8
7FFFFC
F07C1E
E0380E
E03FFE
E03FFE
E03FFE
E03800
E03800
F07C0E
7FFFFE
3FEFFC
0F83F0
ENDCHAR
STARTCHAR charD0
ENCODING 208
SWIDTH 310 0
DWIDTH 9 0
BBX 7 3 1 9
VVECTOR 5 23
SWIDTH1 0 -1000
DWIDTH1 0 -29
BITMAP 
FE
FE
FE
ENDCHAR
STARTCHAR charD1
ENCODING 209
SWIDTH 793 0
DWIDTH 23 0
BBX 23 3 0 9
VVECTOR 12 23
SWIDTH1 0 -1000
DWIDTH1 0 -29
BITMAP 
FFFFFE
FFFFFE
FFFFFE
ENDCHAR
STARTCHAR charD2
ENCODING 210
SWIDTH 414 0
DWIDTH 12 0
BBX 9 6 2 14
VVECTOR 7 23
SWIDTH1 0 -1000
DWIDTH1 0 -29
BITMAP 
7380
7380
E700
E700
E700
E700
ENDCHAR
STARTCHAR charD3
ENCODING 211
SWIDTH 414 0
DWIDTH 12 0
BBX 9 6 1 14
VVECTOR 6 23
SWIDTH1 0 -1000
DWIDTH1 0 -29
BITMAP 
7380
7380
7380
7380
E700
E700
ENDCHAR
STARTCHAR charD4
ENCODING 212
SWIDTH 241 0
DWIDTH 7 0
BBX 4 6 2 14
VVECTOR 4 23
SWIDTH1 0 -1000
DWIDTH1 0 -29
BITMAP 
70
70
E0
E0
E0
E0
ENDCHAR
STARTCHAR charD5
ENCODING 213
SWIDTH 241 0
DWIDTH 7 0
BBX 4 6 1 14
VVECTOR 3 23
SWIDTH1 0 -1000
DWIDTH1 0 -29
BITMAP 
70
70
70
70
E0
E0
ENDCHAR
STARTCHAR charD6
ENCODING 214
SWIDTH 793 0
DWIDTH 23 0
BBX 18 17 2 2
VVECTOR 11 23
SWIDTH1 0 -1000
DWIDTH1 0 -29
BITMAP 
00C000
01E000
01E000
00C000
000000
000000
000000
FFFFC0
FFFFC0
FFFFC0
000000
000000
000000
00C000
01E000
01E000
00C000
ENDCHAR
STARTCHAR charD7
ENCODING 215
SWIDTH 793 0
DWIDTH 23 0
BBX 18 17 2 2
VVECTOR 11 23
SWIDTH1 0 -1000
DWIDTH1 0 -29
BITMAP 
00C000
01E000
03F000
073800
0E1C00
1C0E00
380700
700380
E001C0
700380
380700
1C0E00
0E1C00
073800
03F000
01E000
00C000
ENDCHAR
STARTCHAR charD8
ENCODING 216
SWIDTH 552 0
DWIDTH 16 0
BBX 14 24 1 -6
VVECTOR 8 23
SWIDTH1 0 -1000
DWIDTH1 0 -29
BITMAP 
1CE0
1CE0
0000
0000
E01C
E01C
E038
7038
7038
7070
3870
38E0
38E0
1CE0
1DC0
0DC0
0F80
0F80
0700
0700
0E00
1E00
FC00
F000
ENDCHAR
STARTCHAR missing
ENCODING -1
SWIDTH 655 0
DWIDTH 19 0
BBX 17 25 1 -3
VVECTOR 10 23
SWIDTH1 0 -1000
DWIDTH1 0 -29
BITMAP 
FFFF80
FFFF80
F80F80
E00380
C00180
C3E180
C7F180
C7F180
FFE180
FFC380
FF8780
FF0F80
FF1F80
FE1F80
FE3F80
FE3F80
FE3F80
FFFF80
FFFF80
FFFF80
FE3F80
FE3F80
FE3F80
FFFF80
FFFF80
ENDCHAR
ENDFONT
